<svg version="1" xmlns="http://www.w3.org/2000/svg" width="21.333" height="21.333" viewBox="0 0 16.000000 16.000000"><path d="M1.856 8.01c0 4.183.003 7.606.004 7.606.002 0 .042-.058.087-.128l.2-.311.181-.278a59.763 59.763 0 0 0 .302-.464c.014-.025.364-.562.726-1.117l.273-.422c.077-.12.144-.224.15-.23l.103-.157.362-.56a306.178 306.178 0 0 0 .844-1.3l.32-.492c.47-.725.626-.965.795-1.223l.101-.156c.006-.013.061-.097.122-.19.17-.262.25-.382.313-.482l.06-.092-.082-.125a2.683 2.683 0 0 0-.115-.172.305.305 0 0 1-.036-.055c0-.004-.053-.09-.12-.19l-.302-.464-.507-.78c-.073-.113-.175-.27-.226-.352a2.885 2.885 0 0 0-.125-.185.8.8 0 0 0-.048-.08c-.048-.07-.147-.225-.282-.433a50.752 50.752 0 0 0-.329-.506c-.03-.046-.096-.147-.144-.224a5.912 5.912 0 0 0-.102-.155l-.023-.034a56.757 56.757 0 0 0-.389-.598 9.633 9.633 0 0 1-.16-.25l-.115-.179-.159-.243a33.227 33.227 0 0 0-.35-.534.178.178 0 0 1-.023-.043.274.274 0 0 0-.039-.057.368.368 0 0 1-.038-.055 36.91 36.91 0 0 0-.198-.31 27.806 27.806 0 0 1-.22-.339L2.092.768 1.86.411c-.002-.003-.005 3.416-.005 7.6zM14.084.54l-.298.458c-.12.187-.259.398-.305.471l-.204.313-.119.183c0 .002-.102.161-.128.198l-.092.141-.17.262c-.05.077-.119.185-.154.237l-.166.256-.32.493a91.5 91.5 0 0 1-.294.454l-.346.532-.32.492-.33.51-.144.22c-.048.074-.194.298-.323.5l-.573.88-.262.404-.227.348-.079.123.03.046c.016.027.047.073.067.105l.139.212.166.256.161.25c.08.125.199.305.242.37l.104.16a5.496 5.496 0 0 0 .242.37c0 .004.054.089.119.19l.703 1.079a152.901 152.901 0 0 0 .432.665c.008.014.037.062.249.384l.216.333.234.359a9.866 9.866 0 0 1 .188.294 35.91 35.91 0 0 1 .268.41c.051.076.144.221.208.32l.192.298.443.68.325.501c.113.174.208.314.21.311.007-.006.005-15.173-.001-15.18a.577.577 0 0 0-.083.112z"/></svg>